# xmcd CD database file
#
# Track frame offsets:
#	150
#	38663
#	75488
#	105115
#	146590
#	170663
#	196240
#	223015
#	255565
#
# Disc length: 3812 seconds
#
# Revision: 0
# Processed by: cddbd v1.4PL0 Copyright (c) Steve Scherf et al.
# Submitted via: CDex 1.50
#
DISCID=6f0ee209
DTITLE=Various Artist - Finnish Jazz '91
DYEAR=1991
DGENRE=Jazz
TTITLE0=Mika Mylläri Quintet - Mr Real
TTITLE1=Espoo Big Band - Holy Smoke (Moonlight Caravan, Part 2)
TTITLE2=Pentti Lahti - Kuulas
TTITLE3=Trio Töykeät - Töttöröö
TTITLE4=Jarmo Savolainen - Ode for Opportunists
TTITLE5=In 2á3 - Tarmacadam
TTITLE6=Jukka Perko Quartet - ... and the Kite Escaped
TTITLE7=Laszlo Süle Band - The Final Game
TTITLE8=RinneRadio - Education?
EXTD=YEAR: 1991
EXTT0=
EXTT1=
EXTT2=
EXTT3=
EXTT4=
EXTT5=
EXTT6=
EXTT7=
EXTT8=
PLAYORDER=
